<mxfile host="app.diagrams.net" agent="Mozilla/5.0 (X11; Linux x86_64) AppleWebKit/537.36 (KHTML, like Gecko) Chrome/134.0.0.0 Safari/537.36" version="26.2.3">
  <diagram id="J5kn1CS6Npnnee4UM8Jo" name="Page-1">
    <mxGraphModel dx="1428" dy="1928" grid="1" gridSize="10" guides="1" tooltips="1" connect="1" arrows="1" fold="1" page="1" pageScale="1" pageWidth="827" pageHeight="1169" math="0" shadow="0">
      <root>
        <mxCell id="0" />
        <mxCell id="1" parent="0" />
        <mxCell id="6ziRulM4fkUwtMkTf1GO-29" value="&lt;font style=&quot;font-size: 21px&quot;&gt;&amp;nbsp; &amp;nbsp;AuthenticatedRestApi&lt;br&gt;&lt;br&gt;&lt;br&gt;&lt;br&gt;&lt;br&gt;&lt;br&gt;&lt;br&gt;&lt;br&gt;&lt;br&gt;&lt;br&gt;&lt;br&gt;&lt;br&gt;&lt;br&gt;&lt;br&gt;&lt;br&gt;&lt;br&gt;&lt;br&gt;&lt;br&gt;&lt;br&gt;&lt;br&gt;&lt;br&gt;&lt;br&gt;&lt;br&gt;&lt;br&gt;&lt;br&gt;&lt;br&gt;&lt;/font&gt;" style="rounded=0;whiteSpace=wrap;html=1;align=left;fillColor=none;" parent="1" vertex="1">
          <mxGeometry x="350" y="-1120" width="640" height="680" as="geometry" />
        </mxCell>
        <mxCell id="6ziRulM4fkUwtMkTf1GO-1" value="Rest API" style="outlineConnect=0;dashed=0;verticalLabelPosition=bottom;verticalAlign=top;align=center;html=1;shape=mxgraph.aws3.api_gateway;fillColor=#D9A741;gradientColor=none;" parent="1" vertex="1">
          <mxGeometry x="434" y="-900" width="76.5" height="93" as="geometry" />
        </mxCell>
        <mxCell id="6ziRulM4fkUwtMkTf1GO-2" value="Authoriser" style="outlineConnect=0;dashed=0;verticalLabelPosition=bottom;verticalAlign=top;align=center;html=1;shape=mxgraph.aws3.lambda_function;fillColor=#F58534;gradientColor=none;" parent="1" vertex="1">
          <mxGeometry x="600" y="-1030" width="69" height="72" as="geometry" />
        </mxCell>
        <mxCell id="6ziRulM4fkUwtMkTf1GO-3" value="" style="outlineConnect=0;dashed=0;verticalLabelPosition=bottom;verticalAlign=top;align=center;html=1;shape=mxgraph.aws3.lambda_function;fillColor=#F58534;gradientColor=none;" parent="1" vertex="1">
          <mxGeometry x="720" y="-889.5" width="69" height="72" as="geometry" />
        </mxCell>
        <mxCell id="6ziRulM4fkUwtMkTf1GO-4" value="" style="outlineConnect=0;dashed=0;verticalLabelPosition=bottom;verticalAlign=top;align=center;html=1;shape=mxgraph.aws3.lambda_function;fillColor=#F58534;gradientColor=none;" parent="1" vertex="1">
          <mxGeometry x="720" y="-710" width="69" height="72" as="geometry" />
        </mxCell>
        <mxCell id="6ziRulM4fkUwtMkTf1GO-6" value="/simple-resource/id1" style="endArrow=classic;html=1;rounded=0;exitX=0.102;exitY=1.035;exitDx=0;exitDy=0;exitPerimeter=0;" parent="1" edge="1" source="6ziRulM4fkUwtMkTf1GO-7">
          <mxGeometry width="50" height="50" relative="1" as="geometry">
            <mxPoint x="250" y="-880" as="sourcePoint" />
            <mxPoint x="390" y="-880" as="targetPoint" />
          </mxGeometry>
        </mxCell>
        <mxCell id="6ziRulM4fkUwtMkTf1GO-7" value="" style="shape=image;html=1;verticalAlign=top;verticalLabelPosition=bottom;labelBackgroundColor=#ffffff;imageAspect=0;aspect=fixed;image=https://cdn2.iconfinder.com/data/icons/action-line-1/32/http-128.png" parent="1" vertex="1">
          <mxGeometry x="98.5" y="-1010" width="128" height="128" as="geometry" />
        </mxCell>
        <mxCell id="6ziRulM4fkUwtMkTf1GO-8" value="/simple-resource/id1/child-resource/id2" style="endArrow=classic;html=1;rounded=0;" parent="1" edge="1">
          <mxGeometry width="50" height="50" relative="1" as="geometry">
            <mxPoint x="110" y="-830" as="sourcePoint" />
            <mxPoint x="390" y="-828" as="targetPoint" />
          </mxGeometry>
        </mxCell>
        <mxCell id="6ziRulM4fkUwtMkTf1GO-9" value="Authorised Route" style="shape=flexArrow;endArrow=classic;html=1;rounded=0;" parent="1" edge="1">
          <mxGeometry width="50" height="50" relative="1" as="geometry">
            <mxPoint x="550" y="-854" as="sourcePoint" />
            <mxPoint x="680" y="-854" as="targetPoint" />
          </mxGeometry>
        </mxCell>
        <mxCell id="6ziRulM4fkUwtMkTf1GO-10" value="Unauthorised Route" style="shape=flexArrow;endArrow=classic;html=1;rounded=0;" parent="1" edge="1">
          <mxGeometry width="50" height="50" relative="1" as="geometry">
            <mxPoint x="510" y="-790" as="sourcePoint" />
            <mxPoint x="690" y="-672" as="targetPoint" />
            <Array as="points">
              <mxPoint x="510" y="-670" />
            </Array>
          </mxGeometry>
        </mxCell>
        <mxCell id="6ziRulM4fkUwtMkTf1GO-11" value="Persona" style="shape=module;align=left;spacingLeft=20;align=center;verticalAlign=top;" parent="1" vertex="1">
          <mxGeometry x="1050" y="-1024" width="150" height="60" as="geometry" />
        </mxCell>
        <mxCell id="6ziRulM4fkUwtMkTf1GO-12" value="" style="shape=flexArrow;endArrow=classic;html=1;rounded=0;" parent="1" edge="1">
          <mxGeometry width="50" height="50" relative="1" as="geometry">
            <mxPoint x="689.5" y="-1010" as="sourcePoint" />
            <mxPoint x="1020" y="-1010" as="targetPoint" />
          </mxGeometry>
        </mxCell>
        <mxCell id="6ziRulM4fkUwtMkTf1GO-13" value="" style="shape=flexArrow;endArrow=classic;html=1;rounded=0;" parent="1" edge="1">
          <mxGeometry width="50" height="50" relative="1" as="geometry">
            <mxPoint x="500" y="-924" as="sourcePoint" />
            <mxPoint x="581" y="-964" as="targetPoint" />
          </mxGeometry>
        </mxCell>
        <mxCell id="6ziRulM4fkUwtMkTf1GO-14" value="" style="shape=flexArrow;endArrow=classic;html=1;rounded=0;" parent="1" edge="1">
          <mxGeometry width="50" height="50" relative="1" as="geometry">
            <mxPoint x="591.5" y="-929.5" as="sourcePoint" />
            <mxPoint x="510.5" y="-889.5" as="targetPoint" />
          </mxGeometry>
        </mxCell>
        <mxCell id="6ziRulM4fkUwtMkTf1GO-15" value="" style="shape=flexArrow;endArrow=classic;html=1;rounded=0;" parent="1" edge="1">
          <mxGeometry width="50" height="50" relative="1" as="geometry">
            <mxPoint x="1020.5" y="-980" as="sourcePoint" />
            <mxPoint x="690" y="-980" as="targetPoint" />
          </mxGeometry>
        </mxCell>
        <mxCell id="6ziRulM4fkUwtMkTf1GO-16" value="Latency" style="shape=image;html=1;verticalAlign=top;verticalLabelPosition=bottom;labelBackgroundColor=#ffffff;imageAspect=0;aspect=fixed;image=https://cdn2.iconfinder.com/data/icons/amazon-aws-stencils/100/Deployment__Management_copy_CloudWatch_Alarm-128.png" parent="1" vertex="1">
          <mxGeometry x="437.25" y="-610" width="70" height="70" as="geometry" />
        </mxCell>
        <mxCell id="6ziRulM4fkUwtMkTf1GO-17" value="Alarm Topic" style="outlineConnect=0;dashed=0;verticalLabelPosition=bottom;verticalAlign=top;align=center;html=1;shape=mxgraph.aws3.sns;fillColor=#D9A741;gradientColor=none;" parent="1" vertex="1">
          <mxGeometry x="1086.75" y="-817.5" width="76.5" height="76.5" as="geometry" />
        </mxCell>
        <mxCell id="6ziRulM4fkUwtMkTf1GO-20" value="Duration" style="shape=image;html=1;verticalAlign=top;verticalLabelPosition=bottom;labelBackgroundColor=#ffffff;imageAspect=0;aspect=fixed;image=https://cdn2.iconfinder.com/data/icons/amazon-aws-stencils/100/Deployment__Management_copy_CloudWatch_Alarm-128.png" parent="1" vertex="1">
          <mxGeometry x="870" y="-888.5" width="70" height="70" as="geometry" />
        </mxCell>
        <mxCell id="6ziRulM4fkUwtMkTf1GO-21" value="Duration" style="shape=image;html=1;verticalAlign=top;verticalLabelPosition=bottom;labelBackgroundColor=#ffffff;imageAspect=0;aspect=fixed;image=https://cdn2.iconfinder.com/data/icons/amazon-aws-stencils/100/Deployment__Management_copy_CloudWatch_Alarm-128.png" parent="1" vertex="1">
          <mxGeometry x="870" y="-709" width="70" height="70" as="geometry" />
        </mxCell>
        <mxCell id="6ziRulM4fkUwtMkTf1GO-22" value="" style="endArrow=classic;html=1;rounded=0;edgeStyle=orthogonalEdgeStyle;" parent="1" edge="1">
          <mxGeometry width="50" height="50" relative="1" as="geometry">
            <mxPoint x="450" y="-620" as="sourcePoint" />
            <mxPoint x="450" y="-780" as="targetPoint" />
            <Array as="points">
              <mxPoint x="450" y="-690" />
            </Array>
          </mxGeometry>
        </mxCell>
        <mxCell id="6ziRulM4fkUwtMkTf1GO-23" value="" style="endArrow=classic;html=1;rounded=0;edgeStyle=orthogonalEdgeStyle;" parent="1" edge="1">
          <mxGeometry width="50" height="50" relative="1" as="geometry">
            <mxPoint x="510" y="-560" as="sourcePoint" />
            <mxPoint x="1140" y="-700" as="targetPoint" />
            <Array as="points">
              <mxPoint x="1140" y="-560" />
              <mxPoint x="1140" y="-690" />
            </Array>
          </mxGeometry>
        </mxCell>
        <mxCell id="6ziRulM4fkUwtMkTf1GO-25" value="" style="endArrow=classic;html=1;rounded=0;" parent="1" edge="1">
          <mxGeometry width="50" height="50" relative="1" as="geometry">
            <mxPoint x="800" y="-670" as="sourcePoint" />
            <mxPoint x="860" y="-670" as="targetPoint" />
          </mxGeometry>
        </mxCell>
        <mxCell id="6ziRulM4fkUwtMkTf1GO-26" value="" style="endArrow=classic;html=1;rounded=0;" parent="1" edge="1">
          <mxGeometry width="50" height="50" relative="1" as="geometry">
            <mxPoint x="800" y="-854" as="sourcePoint" />
            <mxPoint x="860" y="-854" as="targetPoint" />
          </mxGeometry>
        </mxCell>
        <mxCell id="6ziRulM4fkUwtMkTf1GO-27" value="" style="endArrow=classic;html=1;rounded=0;" parent="1" edge="1">
          <mxGeometry width="50" height="50" relative="1" as="geometry">
            <mxPoint x="940" y="-854" as="sourcePoint" />
            <mxPoint x="1120" y="-840" as="targetPoint" />
            <Array as="points">
              <mxPoint x="1120" y="-854" />
            </Array>
          </mxGeometry>
        </mxCell>
        <mxCell id="6ziRulM4fkUwtMkTf1GO-28" value="" style="endArrow=classic;html=1;rounded=0;" parent="1" edge="1">
          <mxGeometry width="50" height="50" relative="1" as="geometry">
            <mxPoint x="938.25" y="-670" as="sourcePoint" />
            <mxPoint x="1118" y="-700" as="targetPoint" />
            <Array as="points">
              <mxPoint x="1118.25" y="-670" />
            </Array>
          </mxGeometry>
        </mxCell>
      </root>
    </mxGraphModel>
  </diagram>
</mxfile>
